<svg width="83" height="52" viewBox="0 0 83 52" fill="none" xmlns="http://www.w3.org/2000/svg">
<path d="M83 34.9955C83 30.0308 82.3516 25.1793 82.0922 24.6456C81.8977 24.2575 80.6494 23.2387 77.8125 21.3143C74.9432 19.3575 75.008 19.6486 74.4893 18.371C74.9594 18.2255 75.4133 17.9506 75.6889 17.9182C76.3049 17.8535 76.3373 18.4357 77.618 18.4357C78.8986 18.4357 81.6707 18.0961 82.2381 17.5301C82.8055 16.9641 82.9838 16.77 82.9838 16.2687C82.9838 15.7674 82.692 14.7324 82.1408 14.1179C81.5897 13.5033 79.2391 13.1961 77.8611 13.0182C76.4832 12.8403 76.2887 13.0182 75.932 13.2446C75.3646 13.6004 75.3322 16.8509 75.3322 16.8509L73.9867 16.8832C73.1113 14.7324 71.8955 10.3984 69.9988 6.98616C67.9238 3.26668 65.7516 2.10232 64.8438 1.81123C63.9521 1.53631 63.1416 1.34225 57.0625 0.727725C50.8537 0.0808584 45.9094 0 41.5 0C37.0906 0 32.1463 0.09703 25.9375 0.727725C19.8584 1.35842 19.0479 1.53631 18.1562 1.81123C17.2646 2.08615 15.0762 3.26668 13.0012 6.98616C11.1045 10.3984 9.88867 14.7324 9.01328 16.8832L7.66777 16.8509C7.66777 16.8509 7.65156 13.6004 7.06797 13.2446C6.71133 13.0182 6.5168 12.8241 5.13887 13.0182C3.76094 13.2123 1.41035 13.5033 0.85918 14.1179C0.308008 14.7324 0.0162109 15.7674 0.0162109 16.2687C0.0162109 16.77 0.194531 16.9803 0.761914 17.5301C1.3293 18.0961 4.10137 18.4357 5.38203 18.4357C6.6627 18.4357 6.69512 17.8535 7.31113 17.9182C7.58672 17.9506 8.05684 18.2255 8.51074 18.371C7.97578 19.6486 8.05684 19.3575 5.1875 21.3143C2.35059 23.2549 1.08613 24.2575 0.907812 24.6456C0.648437 25.1793 0 30.0308 0 34.9955C0 39.9602 0.356641 44.4236 0.356641 46.0084C0.356641 46.6714 0.356641 47.8358 0.502539 48.9516C0.599805 49.6147 0.745703 50.2615 1.00508 50.7629C1.44277 51.6523 1.84805 51.7332 3.51777 51.6523C5.65762 51.5553 8.75391 51.6523 11.9475 51.7817C14.0873 51.8625 16.2758 51.9434 18.2211 51.9919C23.0844 52.0889 21.6578 51.2804 23.7328 51.3127C25.8078 51.345 33.9943 51.6846 41.4838 51.6846C48.9732 51.6846 57.176 51.345 59.2348 51.3127C61.3098 51.2804 59.8832 52.0889 64.7465 51.9919C66.6918 51.9596 68.8803 51.8625 71.0201 51.7817C74.2137 51.6685 77.3262 51.5553 79.4498 51.6523C81.1195 51.7332 81.5248 51.6523 81.9625 50.7629C82.2057 50.2615 82.3678 49.6147 82.465 48.9516C82.6272 47.8358 82.6109 46.6714 82.6109 46.0084C82.6434 44.4397 83 39.9602 83 34.9955ZM13.9738 10.5116C14.752 8.70036 17.0863 5.06173 18.2211 4.41487C18.4967 4.25315 20.9121 3.49308 26.9588 3.08879C32.5191 2.71684 38.6631 2.5713 41.5162 2.5713C44.3693 2.5713 50.5133 2.71684 56.0736 3.08879C62.1041 3.49308 64.552 4.23698 64.8113 4.41487C66.2703 5.41751 68.2805 8.70036 69.0586 10.5116C69.8367 12.3228 70.8742 15.8806 70.6797 16.3657C70.4852 16.8509 70.8742 17.0935 68.248 16.8832C65.6381 16.6892 49.2488 16.4789 41.5324 16.4789C33.8322 16.4789 17.443 16.6892 14.8168 16.8832C12.1906 17.0773 12.5797 16.8509 12.3852 16.3657C12.1582 15.8806 13.1957 12.339 13.9738 10.5116ZM19.9395 30.7585C18.7723 31.0496 18.0752 31.6803 16.6162 31.6641C15.1572 31.6641 11.218 31.0011 10.375 30.9687C9.53203 30.9364 8.78633 31.5348 8.34863 31.648C7.91094 31.7612 7.05176 31.4539 5.75488 31.0496C4.45801 30.6453 3.69609 30.7585 3.27461 28.9958C2.83691 27.2493 3.27461 24.7427 3.27461 24.7427C6.0791 24.6133 8.78633 24.872 13.8604 26.2951C18.9344 27.7182 21.7551 30.4512 21.7551 30.4512C21.7551 30.4512 21.1066 30.4674 19.9395 30.7585ZM58.0676 43.5018C55.7494 43.809 46.0391 43.8899 41.5 43.8899C36.9609 43.8899 27.2506 43.7929 24.9324 43.5018C22.5656 43.1945 19.4855 40.3645 21.6092 38.1166C24.4785 35.0602 23.9436 35.1572 30.4604 34.3163C36.1018 33.5886 40.3814 33.5562 41.5 33.5562C42.6023 33.5562 46.8982 33.6047 52.5396 34.3163C59.0564 35.1572 58.5215 35.0602 61.3908 38.1166C63.5145 40.3645 60.4344 43.1945 58.0676 43.5018ZM79.7254 29.012C79.2877 30.7585 78.542 30.6615 77.2451 31.0658C75.9482 31.4701 75.0891 31.7612 74.6514 31.6641C74.2137 31.5671 73.468 30.9687 72.625 30.9849C71.782 31.0173 67.8428 31.6803 66.3838 31.6803C64.9248 31.6803 64.2277 31.0658 63.0605 30.7747C61.8934 30.4836 61.2449 30.4836 61.2449 30.4836C61.2449 30.4836 64.0494 27.7344 69.1396 26.3275C74.2137 24.9044 76.9209 24.6456 79.7254 24.775C79.7254 24.7427 80.1631 27.2493 79.7254 29.012Z" fill="url(#paint0_linear_55_204)"/>
<defs>
<linearGradient id="paint0_linear_55_204" x1="31.5" y1="11" x2="31.5" y2="42.5" gradientUnits="userSpaceOnUse">
<stop stop-color="#EA9C02"/>
<stop offset="1" stop-color="#FEBD20"/>
</linearGradient>
</defs>
</svg>
