<svg width="122" height="27" viewBox="0 0 122 27" fill="none" xmlns="http://www.w3.org/2000/svg">
<path d="M0.160156 18.7754H5.27539C5.52148 20.8672 7.70117 22.2383 10.5137 22.2383C13.3438 22.2383 15.2773 20.8848 15.2773 19.0215C15.2773 17.3691 14.0645 16.4551 11.0059 15.7695L7.70117 15.0488C3.02539 14.0469 0.722656 11.6738 0.722656 7.96484C0.722656 3.28906 4.76562 0.195312 10.4258 0.195312C16.332 0.195312 20.041 3.23633 20.1289 7.82422H15.1543C14.9785 5.67969 13.0977 4.37891 10.4434 4.37891C7.82422 4.37891 6.06641 5.62695 6.06641 7.50781C6.06641 9.07227 7.29688 9.95117 10.2148 10.6191L13.291 11.2695C18.3711 12.3594 20.5859 14.5391 20.5859 18.4062C20.5859 23.3281 16.5957 26.4395 10.3027 26.4395C4.20312 26.4395 0.318359 23.5391 0.160156 18.7754ZM24.7871 2.81445H29.9199V7.15625H33.4004V11.0234H29.9199V20.041C29.9199 21.4824 30.623 22.168 32.1348 22.168C32.5918 22.168 33.0664 22.1328 33.3828 22.0801V25.8594C32.8555 25.9824 31.9766 26.0703 30.9395 26.0703C26.5098 26.0703 24.7871 24.5938 24.7871 20.9199V11.0234H22.1328V7.15625H24.7871V2.81445ZM53.6152 7.15625V26H48.6582V22.6074H48.5527C47.6211 24.9805 45.7578 26.3516 42.9102 26.3516C38.832 26.3516 36.125 23.6973 36.125 19.3027V7.15625H41.2578V18.2305C41.2578 20.7441 42.5059 22.0801 44.7734 22.0801C47.0586 22.0801 48.4824 20.4453 48.4824 17.9492V7.15625H53.6152ZM68.6094 26.4395C61.2266 26.4395 56.6035 21.5 56.6035 13.3086C56.6035 5.13477 61.2617 0.195312 68.6094 0.195312C74.709 0.195312 79.3496 4.0625 79.7539 9.74023H74.5859C74.0938 6.62891 71.7031 4.58984 68.6094 4.58984C64.6016 4.58984 62.0176 7.94727 62.0176 13.291C62.0176 18.7051 64.5664 22.0449 68.627 22.0449C71.7734 22.0449 74.041 20.1992 74.6035 17.1934H79.7715C79.1738 22.8535 74.832 26.4395 68.6094 26.4395ZM89.791 22.5898C92.0234 22.5898 93.8691 21.1309 93.8691 19.0918V17.7207L89.8965 17.9668C87.9805 18.1074 86.8906 18.9688 86.8906 20.3047C86.8906 21.7109 88.0508 22.5898 89.791 22.5898ZM88.1035 26.2988C84.5176 26.2988 81.793 23.9785 81.793 20.5859C81.793 17.1582 84.4297 15.1719 89.123 14.8906L93.8691 14.6094V13.3613C93.8691 11.6035 92.6387 10.584 90.7051 10.584C88.7891 10.584 87.5762 11.5332 87.3301 12.9219H82.6367C82.8301 9.26562 85.9414 6.75195 90.9336 6.75195C95.7676 6.75195 98.9141 9.24805 98.9141 13.0449V26H93.957V23.1172H93.8516C92.7969 25.1211 90.459 26.2988 88.1035 26.2988ZM113.434 26.2988C110.674 26.2988 108.564 24.9629 107.527 22.7656H107.422V26H102.359V0.634766H107.492V10.4258H107.598C108.635 8.19336 110.727 6.85742 113.416 6.85742C118.162 6.85742 121.08 10.4961 121.08 16.5781C121.08 22.6426 118.18 26.2988 113.434 26.2988ZM111.658 10.9707C109.18 10.9707 107.475 13.2031 107.475 16.5781C107.475 19.9883 109.162 22.168 111.658 22.168C114.225 22.168 115.824 20.0234 115.824 16.5781C115.824 13.1504 114.207 10.9707 111.658 10.9707Z" fill="#121212"/>
</svg>
